<?xml version="1.0" encoding="UTF-8"?>
<!DOCTYPE svg PUBLIC "-//W3C//DTD SVG 1.1//EN" "http://www.w3.org/Graphics/SVG/1.1/DTD/svg11.dtd">
<svg xmlns="http://www.w3.org/2000/svg" version="1.1" width="224px" height="40px" style="shape-rendering:geometricPrecision; text-rendering:geometricPrecision; image-rendering:optimizeQuality; fill-rule:evenodd; clip-rule:evenodd" xmlns:xlink="http://www.w3.org/1999/xlink">
<g><path style="opacity:0.008" fill="#000000" d="M 91.5,-0.5 C 91.8333,-0.5 92.1667,-0.5 92.5,-0.5C 92.5,-0.166667 92.5,0.166667 92.5,0.5C 92.1667,0.166667 91.8333,-0.166667 91.5,-0.5 Z"/></g>
<g><path style="opacity:0.008" fill="#000000" d="M 25.5,0.5 C 26.8333,1.16667 26.8333,1.16667 25.5,0.5 Z"/></g>
<g><path style="opacity:0.196" fill="#2f2538" d="M 19.5,-0.5 C 19.8333,-0.5 20.1667,-0.5 20.5,-0.5C 20.5,-0.166667 20.5,0.166667 20.5,0.5C 20.1667,1.5 19.5,2.16667 18.5,2.5C 18.0618,2.56544 17.7284,2.39877 17.5,2C 18.3805,1.2917 19.0472,0.458367 19.5,-0.5 Z"/></g>
<g><path style="opacity:0.999" fill="#272728" d="M 53.5,-0.5 C 53.8333,-0.5 54.1667,-0.5 54.5,-0.5C 54.5,0.166667 54.8333,0.5 55.5,0.5C 56.9061,2.83806 58.2394,5.33806 59.5,8C 57.6013,12.1778 56.9347,16.6778 57.5,21.5C 59.9726,21.9118 61.3059,20.9118 61.5,18.5C 63.1667,17.5 64.5,16.1667 65.5,14.5C 66.5,14.5 67.5,14.5 68.5,14.5C 68.5,15.5 68.5,16.5 68.5,17.5C 68.5,17.8333 68.5,18.1667 68.5,18.5C 67.8333,18.5 67.5,18.8333 67.5,19.5C 66.8333,19.5 66.5,19.8333 66.5,20.5C 65.8333,20.5 65.5,20.8333 65.5,21.5C 64.1667,21.8333 64.1667,22.1667 65.5,22.5C 64.828,23.2674 63.9947,23.9341 63,24.5C 60.0454,24.3218 56.8788,24.3218 53.5,24.5C 53.6646,21.4816 53.498,18.4816 53,15.5C 52.0565,16.263 51.5565,17.263 51.5,18.5C 53.2983,22.1265 52.6316,22.9599 49.5,21C 49.5,17.6667 49.5,14.3333 49.5,11C 53.1136,8.05584 54.4469,4.2225 53.5,-0.5 Z"/></g>
<g><path style="opacity:1" fill="#2a2a2b" d="M 95.5,-0.5 C 96.1667,-0.5 96.8333,-0.5 97.5,-0.5C 96.1901,6.59878 96.1901,13.5988 97.5,20.5C 97.5,21.8333 97.5,23.1667 97.5,24.5C 96.0413,24.5674 94.7079,24.2341 93.5,23.5C 92.5343,15.9196 92.201,8.25297 92.5,0.5C 93.791,0.737305 94.791,0.403972 95.5,-0.5 Z"/></g>
<g><path style="opacity:0.99" fill="#242425" d="M 215.5,-0.5 C 216.5,-0.5 217.5,-0.5 218.5,-0.5C 217.895,6.61821 218.562,13.4515 220.5,20C 219.62,21.3561 219.286,22.8561 219.5,24.5C 218.041,24.5674 216.708,24.2341 215.5,23.5C 215.217,22.7109 214.717,22.0442 214,21.5C 212.927,13.8954 213.427,6.56205 215.5,-0.5 Z"/></g>
<g><path style="opacity:1" fill="#64508c" d="M 188.5,1.5 C 190.628,0.370858 192.961,0.204191 195.5,1C 195.167,1.33333 194.833,1.66667 194.5,2C 195.413,6.52254 196.746,10.8559 198.5,15C 197.763,18.0225 198.096,21.0225 199.5,24C 195.083,25.5685 193.083,24.0685 193.5,19.5C 194.573,18.7494 194.74,17.7494 194,16.5C 191.527,15.8803 189.027,15.2136 186.5,14.5C 186.624,13.8933 186.957,13.56 187.5,13.5C 189.166,14.6664 190.833,14.6664 192.5,13.5C 191.787,11.2241 191.287,8.89073 191,6.5C 189.887,7.76035 189.72,8.92702 190.5,10C 189.906,10.4643 189.239,10.631 188.5,10.5C 187.472,10.0742 186.139,10.0742 184.5,10.5C 184.062,10.5654 183.728,10.3988 183.5,10C 185.301,9.68268 185.634,9.01602 184.5,8C 185.338,6.84461 186.338,5.67794 187.5,4.5C 188.338,4.15829 188.672,3.49162 188.5,2.5C 189.833,2.16667 189.833,1.83333 188.5,1.5 Z"/></g>
<g><path style="opacity:1" fill="#695492" d="M 206.5,21.5 C 205.533,22.8062 204.199,23.4729 202.5,23.5C 202.5,22.1667 202.5,20.8333 202.5,19.5C 203.019,13.5527 204.019,7.71936 205.5,2C 205.167,1.66667 204.833,1.33333 204.5,1C 206.5,0.333333 208.5,0.333333 210.5,1C 208.851,7.74469 207.518,14.578 206.5,21.5 Z"/></g>
<g><path style="opacity:0.999" fill="#242425" d="M 140.5,23.5 C 139.781,21.6827 138.781,21.0161 137.5,21.5C 137.709,20.914 138.043,20.414 138.5,20C 138.162,16.7456 137.162,13.9123 135.5,11.5C 135.5,10.1667 135.5,8.83333 135.5,7.5C 137.256,6.44787 137.923,4.78121 137.5,2.5C 139.575,2.3016 141.575,2.13494 143.5,2C 142.594,3.69946 142.261,5.5328 142.5,7.5C 143.833,7.5 145.167,7.5 146.5,7.5C 146.5,8.83333 146.5,10.1667 146.5,11.5C 145.167,11.5 143.833,11.5 142.5,11.5C 142.336,14.1873 142.503,16.854 143,19.5C 144.008,19.9817 145.175,20.1484 146.5,20C 145.62,21.3561 145.286,22.8561 145.5,24.5C 143.708,24.634 142.042,24.3007 140.5,23.5 Z"/></g>
<g><path style="opacity:1" fill="#252526" d="M 165.5,7.5 C 165.5,8.83333 165.5,10.1667 165.5,11.5C 164.5,11.5 163.5,11.5 162.5,11.5C 162.704,14.5453 162.704,17.3787 162.5,20C 163.448,20.4828 164.448,20.6495 165.5,20.5C 166.457,25.8186 164.957,26.8186 161,23.5C 159.853,24.4581 158.853,24.1247 158,22.5C 157.501,18.8484 157.335,15.1817 157.5,11.5C 156.5,11.5 155.5,11.5 154.5,11.5C 154.5,10.1667 154.5,8.83333 154.5,7.5C 155.5,7.5 156.5,7.5 157.5,7.5C 157.5,5.83333 157.5,4.16667 157.5,2.5C 159.144,2.71351 160.644,2.38017 162,1.5C 162.743,3.44058 162.576,5.27391 161.5,7C 162.793,7.49001 164.127,7.65668 165.5,7.5 Z"/></g>
<g><path style="opacity:0.043" fill="#0c0c0c" d="M 188.5,1.5 C 188.5,1.83333 188.5,2.16667 188.5,2.5C 188.672,3.49162 188.338,4.15829 187.5,4.5C 187.062,4.56544 186.728,4.39877 186.5,4C 187.066,3.0053 187.733,2.17197 188.5,1.5 Z"/></g>
<g><path style="opacity:0.008" fill="#000000" d="M 118.5,7.5 C 117.833,6.16667 117.833,6.16667 118.5,7.5 Z"/></g>
<g><path style="opacity:0.008" fill="#000000" d="M 135.5,7.5 C 134.833,6.16667 134.833,6.16667 135.5,7.5 Z"/></g>
<g><path style="opacity:0.008" fill="#000000" d="M 165.5,6.5 C 166.833,7.16667 166.833,7.16667 165.5,6.5 Z"/></g>
<g><path style="opacity:0.004" fill="#000000" d="M 178.5,6.5 C 179.833,7.16667 179.833,7.16667 178.5,6.5 Z"/></g>
<g><path style="opacity:0.008" fill="#0c0c0c" d="M 26.5,6.5 C 26.094,7.91453 26.7607,9.0812 28.5,10C 28.2716,10.3988 27.9382,10.5654 27.5,10.5C 26.391,10.4431 25.391,10.1098 24.5,9.5C 24.5,9.16667 24.5,8.83333 24.5,8.5C 25.1667,7.83333 25.8333,7.16667 26.5,6.5 Z"/></g>
<g><path style="opacity:0.999" fill="#232324" d="M 124.5,12.5 C 124.5,11.8333 124.167,11.5 123.5,11.5C 122.174,9.80491 122.507,8.47157 124.5,7.5C 128.406,5.63063 131.406,6.46396 133.5,10C 133.391,14.6219 133.391,19.4552 133.5,24.5C 131.833,24.5 130.167,24.5 128.5,24.5C 128.665,20.8183 128.499,17.1516 128,13.5C 127.047,11.6269 125.88,11.2935 124.5,12.5 Z"/></g>
<g><path style="opacity:0.995" fill="#222223" d="M 55.5,0.5 C 55.5,0.166667 55.5,-0.166667 55.5,-0.5C 56.5,-0.5 57.5,-0.5 58.5,-0.5C 58.5,1.83333 58.5,4.16667 58.5,6.5C 61.4718,6.17025 63.6385,7.17025 65,9.5C 66.3204,9.201 67.8204,9.03434 69.5,9C 69.1667,8.66667 68.8333,8.33333 68.5,8C 69.4162,7.62576 70.2496,7.12576 71,6.5C 73.4031,7.03576 75.5698,7.03576 77.5,6.5C 78.6005,7.60486 79.2671,8.93819 79.5,10.5C 78.0687,11.7804 77.4021,13.4471 77.5,15.5C 77.1667,15.5 76.8333,15.5 76.5,15.5C 75.8333,15.1667 75.1667,14.8333 74.5,14.5C 73.8333,14.5 73.5,14.8333 73.5,15.5C 73.7678,17.099 73.4345,18.4324 72.5,19.5C 71.4863,18.3263 70.153,17.6596 68.5,17.5C 68.5,16.5 68.5,15.5 68.5,14.5C 67.5,14.5 66.5,14.5 65.5,14.5C 65.1667,14.5 64.8333,14.5 64.5,14.5C 65.3065,13.2719 66.3065,12.2719 67.5,11.5C 64.5979,10.4222 61.5979,9.75556 58.5,9.5C 58.335,12.8499 58.5017,16.1832 59,19.5C 59.7083,18.6195 60.5416,17.9528 61.5,17.5C 61.5,17.8333 61.5,18.1667 61.5,18.5C 61.3059,20.9118 59.9726,21.9118 57.5,21.5C 56.9347,16.6778 57.6013,12.1778 59.5,8C 58.2394,5.33806 56.9061,2.83806 55.5,0.5 Z M 67.5,11.5 C 66.3065,12.2719 65.3065,13.2719 64.5,14.5C 63.1667,15.1667 62.1667,16.1667 61.5,17.5C 60.5416,17.9528 59.7083,18.6195 59,19.5C 58.5017,16.1832 58.335,12.8499 58.5,9.5C 61.5979,9.75556 64.5979,10.4222 67.5,11.5 Z"/></g>
<g><path style="opacity:0.996" fill="#272727" d="M 124.5,7.5 C 122.507,8.47157 122.174,9.80491 123.5,11.5C 124.167,11.5 124.5,11.8333 124.5,12.5C 122.289,16.0919 121.956,19.9253 123.5,24C 121.5,24.6667 119.5,24.6667 117.5,24C 118.473,18.5934 118.807,13.0934 118.5,7.5C 120.926,6.27329 122.926,6.27329 124.5,7.5 Z"/></g>
<g><path style="opacity:0.999" fill="#232324" d="M 171.5,7.5 C 171.786,9.93268 172.452,9.93268 173.5,7.5C 175.167,7.5 176.833,7.5 178.5,7.5C 178.66,9.19919 178.494,10.8659 178,12.5C 176.249,11.1912 174.749,11.5245 173.5,13.5C 172.511,17.1073 172.177,20.774 172.5,24.5C 170.833,24.5 169.167,24.5 167.5,24.5C 167.334,18.4908 167.501,12.4908 168,6.5C 169.011,7.33663 170.178,7.66997 171.5,7.5 Z M 171.5,7.5 C 172.167,7.5 172.833,7.5 173.5,7.5C 172.452,9.93268 171.786,9.93268 171.5,7.5 Z"/></g>
<g><path style="opacity:0.999" fill="#6f5899" d="M 20.5,0.5 C 22.2915,0.36596 23.9582,0.699293 25.5,1.5C 25.9175,2.22158 26.5842,2.72158 27.5,3C 26.6634,4.01127 26.33,5.17793 26.5,6.5C 25.8333,7.16667 25.1667,7.83333 24.5,8.5C 23.1667,8.83333 23.1667,9.16667 24.5,9.5C 25.391,10.1098 26.391,10.4431 27.5,10.5C 27.8333,11.5 28.5,12.1667 29.5,12.5C 29.9175,13.2216 30.5842,13.7216 31.5,14C 31.1459,15.6255 31.1459,17.4588 31.5,19.5C 30.8333,19.5 30.5,19.8333 30.5,20.5C 30.1667,20.5 29.8333,20.5 29.5,20.5C 28.8333,20.5 28.5,20.8333 28.5,21.5C 23.8358,20.0733 19.5025,19.74 15.5,20.5C 14.8333,20.1667 14.1667,19.8333 13.5,19.5C 13.0657,16.9473 13.0657,14.7806 13.5,13C 15.5153,10.583 17.5153,8.9163 19.5,8C 17.3652,6.44426 17.0319,4.61093 18.5,2.5C 19.5,2.16667 20.1667,1.5 20.5,0.5 Z"/></g>
<g><path style="opacity:0.999" fill="#262627" d="M 91.5,24.5 C 86.499,24.8346 81.3323,24.8346 76,24.5C 74.8333,22.6667 73.3333,21.1667 71.5,20C 71.7284,19.6012 72.0618,19.4346 72.5,19.5C 73.4345,18.4324 73.7678,17.099 73.5,15.5C 74.1667,15.5 74.5,15.1667 74.5,14.5C 75.1667,14.8333 75.8333,15.1667 76.5,15.5C 76.8333,16.8333 77.1667,16.8333 77.5,15.5C 78.5585,16.6002 79.3918,17.9336 80,19.5C 81.3333,19.5 82.6667,19.5 84,19.5C 85.0312,18.2997 85.8645,16.9663 86.5,15.5C 84.9171,14.0712 84.2505,12.5712 84.5,11C 82.8659,10.5065 81.1992,10.3398 79.5,10.5C 79.2671,8.93819 78.6005,7.60486 77.5,6.5C 83.0204,4.71216 87.5204,5.71216 91,9.5C 91.3041,14.2781 91.4707,19.2781 91.5,24.5 Z"/></g>
<g><path style="opacity:0.998" fill="#222223" d="M 115.5,17.5 C 111.958,17.1872 108.625,17.5206 105.5,18.5C 104.167,18.8333 104.167,19.1667 105.5,19.5C 106.097,20.1386 106.93,20.472 108,20.5C 109.8,18.6446 111.8,17.978 114,18.5C 114.374,19.4162 114.874,20.2496 115.5,21C 114.167,21.6667 114.167,22.3333 115.5,23C 114.584,23.3742 113.75,23.8742 113,24.5C 109.865,24.455 106.698,24.455 103.5,24.5C 102.186,23.6872 101.019,22.6872 100,21.5C 99.6659,17.8009 99.4992,14.3009 99.5,11C 101.348,8.74292 103.182,7.24292 105,6.5C 107,7.83333 109,7.83333 111,6.5C 111.724,8.95893 113.057,9.95893 115,9.5C 115.374,10.4162 115.874,11.2496 116.5,12C 115.594,13.6995 115.261,15.5328 115.5,17.5 Z M 109.5,12.5 C 108.054,13.6129 106.387,13.7796 104.5,13C 106.299,11.9637 107.966,11.7971 109.5,12.5 Z"/></g>
<g><path style="opacity:0.012" fill="#000000" d="M 29.5,11.5 C 30.8333,12.1667 30.8333,12.1667 29.5,11.5 Z"/></g>
<g><path style="opacity:0.012" fill="#000000" d="M 135.5,11.5 C 134.833,12.1667 134.833,12.1667 135.5,11.5 Z"/></g>
<g><path style="opacity:0.012" fill="#000000" d="M 165.5,11.5 C 166.833,12.1667 166.833,12.1667 165.5,11.5 Z"/></g>
<g><path style="opacity:0.998" fill="#685391" d="M 188.5,10.5 C 188.611,11.1174 188.944,11.6174 189.5,12C 188.584,12.2784 187.918,12.7784 187.5,13.5C 186.957,13.56 186.624,13.8933 186.5,14.5C 189.027,15.2136 191.527,15.8803 194,16.5C 194.74,17.7494 194.573,18.7494 193.5,19.5C 190.5,18.1667 187.5,18.1667 184.5,19.5C 183.662,19.8417 183.328,20.5084 183.5,21.5C 182.167,21.8333 182.167,22.1667 183.5,22.5C 183.631,23.2389 183.464,23.9056 183,24.5C 180.807,24.8519 178.64,24.3519 176.5,23C 178.301,22.6827 178.634,22.016 177.5,21C 178.338,19.8446 179.338,18.6779 180.5,17.5C 181.338,17.1583 181.672,16.4916 181.5,15.5C 182.833,15.1667 182.833,14.8333 181.5,14.5C 181.771,12.5695 182.771,11.2362 184.5,10.5C 186.139,10.0742 187.472,10.0742 188.5,10.5 Z"/></g>
<g><path style="opacity:0.043" fill="#0c000c" d="M 181.5,14.5 C 181.5,14.8333 181.5,15.1667 181.5,15.5C 181.672,16.4916 181.338,17.1583 180.5,17.5C 180.062,17.5654 179.728,17.3988 179.5,17C 180.066,16.0053 180.733,15.172 181.5,14.5 Z"/></g>
<g><path style="opacity:0.004" fill="#000000" d="M 115.5,17.5 C 116.833,18.1667 116.833,18.1667 115.5,17.5 Z"/></g>
<g><path style="opacity:0.004" fill="#000000" d="M 68.5,18.5 C 69.8333,19.1667 69.8333,19.1667 68.5,18.5 Z"/></g>
<g><path style="opacity:0.012" fill="#000000" d="M 105.5,18.5 C 106.833,19.1667 106.833,19.1667 105.5,18.5 Z"/></g>
<g><path style="opacity:0.012" fill="#000000" d="M 67.5,19.5 C 67.8333,19.5 68.1667,19.5 68.5,19.5C 68.3147,20.1701 67.9813,20.1701 67.5,19.5 Z"/></g>
<g><path style="opacity:0.008" fill="#000000" d="M 97.5,19.5 C 98.8333,20.1667 98.8333,20.1667 97.5,19.5 Z"/></g>
<g><path style="opacity:0.012" fill="#000000" d="M 184.5,19.5 C 184.938,19.4346 185.272,19.6012 185.5,20C 184.934,20.9947 184.267,21.828 183.5,22.5C 183.5,22.1667 183.5,21.8333 183.5,21.5C 183.328,20.5084 183.662,19.8417 184.5,19.5 Z"/></g>
<g><path style="opacity:0.012" fill="#000000" d="M 66.5,20.5 C 66.8333,20.5 67.1667,20.5 67.5,20.5C 67.3147,21.1701 66.9813,21.1701 66.5,20.5 Z"/></g>
<g><path style="opacity:1" fill="#43454a" d="M 30.5,20.5 C 30.5,19.8333 30.8333,19.5 31.5,19.5C 34.7693,19.529 36.1026,20.8623 35.5,23.5C 33.6458,22.759 31.9791,21.759 30.5,20.5 Z"/></g>
<g><path style="opacity:0.008" fill="#000000" d="M 65.5,21.5 C 65.8333,21.5 66.1667,21.5 66.5,21.5C 66.3147,22.1701 65.9813,22.1701 65.5,21.5 Z"/></g>
<g><path style="opacity:0.997" fill="#7a7d8a" d="M 29.5,20.5 C 29.8333,20.5 30.1667,20.5 30.5,20.5C 31.9791,21.759 33.6458,22.759 35.5,23.5C 35.9175,24.2216 36.5842,24.7216 37.5,25C 36.4086,27.0639 36.2419,29.2305 37,31.5C 39.5899,30.6217 41.9232,30.6217 44,31.5C 43.587,33.7229 43.4204,35.7229 43.5,37.5C 41.6208,38.3414 39.6208,38.6747 37.5,38.5C 37.1667,38.5 36.8333,38.5 36.5,38.5C 36.1667,37.8333 35.8333,37.1667 35.5,36.5C 35.7535,34.5992 35.4202,33.9326 34.5,34.5C 33.8333,34.5 33.5,34.8333 33.5,35.5C 32.8333,35.5 32.5,35.8333 32.5,36.5C 29.8763,37.6047 26.8763,37.6047 23.5,36.5C 23.5,35.8333 23.1667,35.5 22.5,35.5C 22.5,35.1667 22.5,34.8333 22.5,34.5C 22.5,34.1667 22.5,33.8333 22.5,33.5C 22.5,32.8333 22.1667,32.5 21.5,32.5C 22.0783,30.5565 23.0783,30.2232 24.5,31.5C 25.4287,30.3112 25.762,28.9778 25.5,27.5C 26.5,27.1667 27.1667,26.5 27.5,25.5C 28.8333,25.1667 28.8333,24.8333 27.5,24.5C 28.1098,23.609 28.4431,22.609 28.5,21.5C 29.1667,21.5 29.5,21.1667 29.5,20.5 Z"/></g>
<g><path style="opacity:1" fill="#626b91" d="M 13.5,19.5 C 14.1667,19.8333 14.8333,20.1667 15.5,20.5C 15.5,21.5 15.5,22.5 15.5,23.5C 14.1667,23.8333 14.1667,24.1667 15.5,24.5C 16.2905,25.4013 17.2905,26.0679 18.5,26.5C 19.154,27.1847 19.154,28.1847 18.5,29.5C 18.8684,31.1753 19.8684,32.1753 21.5,32.5C 22.1667,32.5 22.5,32.8333 22.5,33.5C 22.5,33.8333 22.5,34.1667 22.5,34.5C 21.1667,34.8333 21.1667,35.1667 22.5,35.5C 23.1667,35.5 23.5,35.8333 23.5,36.5C 20.041,37.1466 16.041,37.48 11.5,37.5C 11.2129,36.7997 10.8795,36.1331 10.5,35.5C 10.2172,34.7109 9.71719,34.0442 9,33.5C 8.25988,34.7494 8.42654,35.7494 9.5,36.5C 8.83333,37.1667 8.16667,37.8333 7.5,38.5C 6.83333,38.5 6.5,38.8333 6.5,39.5C 5.16667,39.5 3.83333,39.5 2.5,39.5C 2.16667,38.1667 1.83333,38.1667 1.5,39.5C 1.16667,39.5 0.833333,39.5 0.5,39.5C 0.5,38.8333 0.166667,38.5 -0.5,38.5C -0.5,38.1667 -0.5,37.8333 -0.5,37.5C 0.833333,37.1667 0.833333,36.8333 -0.5,36.5C -0.5,35.5 -0.5,34.5 -0.5,33.5C 0.833333,33.1667 0.833333,32.8333 -0.5,32.5C -0.5,32.1667 -0.5,31.8333 -0.5,31.5C 1.38981,29.8053 3.72315,29.4719 6.5,30.5C 6.98632,28.1933 6.98632,26.0266 6.5,24C 8.67854,23.5581 9.3452,22.5581 8.5,21C 9,20.5 9.5,20 10,19.5C 10.9862,20.1712 12.1529,20.1712 13.5,19.5 Z M 10.5,35.5 C 9.83333,35.5 9.5,35.8333 9.5,36.5C 8.42654,35.7494 8.25988,34.7494 9,33.5C 9.71719,34.0442 10.2172,34.7109 10.5,35.5 Z"/></g>
<g><path style="opacity:0.008" fill="#000000" d="M 93.5,23.5 C 92.8333,24.1667 92.8333,24.1667 93.5,23.5 Z"/></g>
<g><path style="opacity:0.008" fill="#000000" d="M 140.5,23.5 C 139.833,24.1667 139.833,24.1667 140.5,23.5 Z"/></g>
<g><path style="opacity:0.129" fill="#2b233b" d="M 202.5,19.5 C 202.5,20.8333 202.5,22.1667 202.5,23.5C 204.199,23.4729 205.533,22.8062 206.5,21.5C 206.5,22.5 206.5,23.5 206.5,24.5C 204.473,24.6621 202.473,24.4955 200.5,24C 201.099,22.3775 201.766,20.8775 202.5,19.5 Z"/></g>
<g><path style="opacity:0.012" fill="#000000" d="M 215.5,23.5 C 214.833,24.1667 214.833,24.1667 215.5,23.5 Z"/></g>
<g><path style="opacity:0.007" fill="#0c0c10" d="M 15.5,23.5 C 17.1898,23.8564 18.1898,24.8564 18.5,26.5C 17.2905,26.0679 16.2905,25.4013 15.5,24.5C 15.5,24.1667 15.5,23.8333 15.5,23.5 Z"/></g>
<g><path style="opacity:0.012" fill="#000000" d="M 91.5,24.5 C 91.8333,24.5 92.1667,24.5 92.5,24.5C 92.3147,25.1701 91.9813,25.1701 91.5,24.5 Z"/></g>
<g><path style="opacity:0.016" fill="#27292a" d="M 27.5,24.5 C 27.5,24.8333 27.5,25.1667 27.5,25.5C 27.1667,26.5 26.5,27.1667 25.5,27.5C 24.9836,26.2418 25.6503,25.2418 27.5,24.5 Z"/></g>
<g><path style="opacity:0.012" fill="#000000" d="M 51.5,34.5 C 50.8333,33.1667 50.8333,33.1667 51.5,34.5 Z"/></g>
<g><path style="opacity:0.165" fill="#282b3a" d="M 55.5,34.5 C 59.2984,33.5166 63.2984,33.1832 67.5,33.5C 67.7373,34.791 67.404,35.791 66.5,36.5C 66.1667,36.5 65.8333,36.5 65.5,36.5C 65.5,36.1667 65.5,35.8333 65.5,35.5C 66.0674,34.5798 65.4008,34.2465 63.5,34.5C 62.6236,34.3691 61.9569,34.7025 61.5,35.5C 62.462,37.8833 61.462,38.8833 58.5,38.5C 59.1667,37.8333 59.8333,37.1667 60.5,36.5C 60.1583,35.6618 59.4916,35.3284 58.5,35.5C 58.5,34.8333 58.1667,34.5 57.5,34.5C 56.8333,34.5 56.1667,34.5 55.5,34.5 Z"/></g>
<g><path style="opacity:0.016" fill="#000000" d="M 100.5,33.5 C 101.833,34.1667 101.833,34.1667 100.5,33.5 Z"/></g>
<g><path style="opacity:0.02" fill="#000000" d="M 118.5,34.5 C 117.833,33.1667 117.833,33.1667 118.5,34.5 Z"/></g>
<g><path style="opacity:0.063" fill="#1d1e29" d="M 119.5,34.5 C 120.209,33.596 121.209,33.2627 122.5,33.5C 122.5,34.8333 122.5,36.1667 122.5,37.5C 121.833,37.5 121.5,37.1667 121.5,36.5C 121.5,36.1667 121.5,35.8333 121.5,35.5C 121.158,34.6618 120.492,34.3284 119.5,34.5 Z"/></g>
<g><path style="opacity:0.004" fill="#000000" d="M 132.5,33.5 C 133.833,34.1667 133.833,34.1667 132.5,33.5 Z"/></g>
<g><path style="opacity:0.012" fill="#1c1c28" d="M 139.5,34.5 C 139.167,34.5 138.833,34.5 138.5,34.5C 137.833,34.5 137.5,34.8333 137.5,35.5C 136.883,35.3893 136.383,35.056 136,34.5C 135.506,36.1341 135.34,37.8008 135.5,39.5C 135.167,39.5 134.833,39.5 134.5,39.5C 134.5,37.5 134.5,35.5 134.5,33.5C 137.041,33.1486 138.708,33.4819 139.5,34.5 Z"/></g>
<g><path style="opacity:0.122" fill="#171a20" d="M 156.5,34.5 C 161.975,33.5111 167.642,33.1778 173.5,33.5C 173.737,34.791 173.404,35.791 172.5,36.5C 172.167,36.5 171.833,36.5 171.5,36.5C 171.5,36.1667 171.5,35.8333 171.5,35.5C 172.067,34.5798 171.401,34.2465 169.5,34.5C 168.833,34.5 168.167,34.5 167.5,34.5C 165.901,34.2322 164.568,34.5655 163.5,35.5C 163.565,35.9382 163.399,36.2716 163,36.5C 162.722,35.5842 162.222,34.9175 161.5,34.5C 160.732,35.2625 160.232,36.2625 160,37.5C 159.536,36.9056 159.369,36.2389 159.5,35.5C 159.5,34.8333 159.167,34.5 158.5,34.5C 157.833,34.5 157.167,34.5 156.5,34.5 Z"/></g>
<g><path style="opacity:0.016" fill="#000000" d="M 193.5,33.5 C 194.833,34.1667 194.833,34.1667 193.5,33.5 Z"/></g>
<g><path style="opacity:0.116" fill="#191b24" d="M 199.5,36.5 C 199.167,36.5 198.833,36.5 198.5,36.5C 198.5,36.1667 198.5,35.8333 198.5,35.5C 199.067,34.5798 198.401,34.2465 196.5,34.5C 196.5,36.1667 196.5,37.8333 196.5,39.5C 196.167,39.5 195.833,39.5 195.5,39.5C 195.737,38.209 195.404,37.209 194.5,36.5C 195.68,34.087 197.68,33.087 200.5,33.5C 200.737,34.791 200.404,35.791 199.5,36.5 Z"/></g>
<g><path style="opacity:0.014" fill="#111117" d="M 201.5,34.5 C 203.5,33.1667 205.5,33.1667 207.5,34.5C 207.167,34.5 206.833,34.5 206.5,34.5C 205.732,35.2625 205.232,36.2625 205,37.5C 204.536,36.9056 204.369,36.2389 204.5,35.5C 204.5,34.8333 204.167,34.5 203.5,34.5C 202.833,34.5 202.167,34.5 201.5,34.5 Z"/></g>
<g><path style="opacity:0.004" fill="#000000" d="M 79.5,34.5 C 80.8333,35.1667 80.8333,35.1667 79.5,34.5 Z"/></g>
<g><path style="opacity:0.675" fill="#616b8f" d="M 94.5,37.5 C 93.5,37.8333 92.8333,38.5 92.5,39.5C 92.1667,39.5 91.8333,39.5 91.5,39.5C 91.0773,37.2188 91.744,35.5521 93.5,34.5C 95.7833,33.9236 96.1166,34.9236 94.5,37.5 Z"/></g>
<g><path style="opacity:0.161" fill="#29313d" d="M 109.5,35.5 C 109.167,35.5 108.833,35.5 108.5,35.5C 108.167,35.5 107.833,35.5 107.5,35.5C 107.5,35.1667 107.5,34.8333 107.5,34.5C 109.379,33.6586 111.379,33.3253 113.5,33.5C 113.649,34.552 113.483,35.552 113,36.5C 111.855,36.3809 110.688,36.0476 109.5,35.5 Z"/></g>
<g><path style="opacity:0.588" fill="#33354c" d="M 209.5,36.5 C 209.5,35.8333 209.167,35.5 208.5,35.5C 207.833,35.5 207.5,35.1667 207.5,34.5C 209.379,33.6586 211.379,33.3253 213.5,33.5C 213.649,34.552 213.483,35.552 213,36.5C 212.014,35.8288 210.847,35.8288 209.5,36.5 Z"/></g>
<g><path style="opacity:0.004" fill="#151517" d="M 35.5,36.5 C 34.5,36.5 33.5,36.5 32.5,36.5C 32.5,35.8333 32.8333,35.5 33.5,35.5C 34.1667,35.5 34.5,35.1667 34.5,34.5C 35.4202,33.9326 35.7535,34.5992 35.5,36.5 Z"/></g>
<g><path style="opacity:0.216" fill="#2d3042" d="M 77.5,34.5 C 76.5,34.5 75.5,34.5 74.5,34.5C 73.8333,34.5 73.1667,34.5 72.5,34.5C 71.5,34.5 70.5,34.5 69.5,34.5C 69.5,36.1667 69.5,37.8333 69.5,39.5C 69.1667,39.5 68.8333,39.5 68.5,39.5C 68.5,37.5 68.5,35.5 68.5,33.5C 71.7131,33.19 74.7131,33.5233 77.5,34.5 Z"/></g>
<g><path style="opacity:0.784" fill="#6b759f" d="M 74.5,34.5 C 75.5,34.5 76.5,34.5 77.5,34.5C 78.1667,34.8333 78.8333,35.1667 79.5,35.5C 79.5674,36.9587 79.2341,38.2921 78.5,39.5C 77.1667,39.5 75.8333,39.5 74.5,39.5C 74.5,37.8333 74.5,36.1667 74.5,34.5 Z"/></g>
<g><path style="opacity:0.008" fill="#000000" d="M 86.5,35.5 C 87.8333,36.1667 87.8333,36.1667 86.5,35.5 Z"/></g>
<g><path style="opacity:0.192" fill="#2c3244" d="M 93.5,34.5 C 91.744,35.5521 91.0773,37.2188 91.5,39.5C 91.1667,39.5 90.8333,39.5 90.5,39.5C 90.5,37.5 90.5,35.5 90.5,33.5C 91.791,33.2627 92.791,33.596 93.5,34.5 Z"/></g>
<g><path style="opacity:0.435" fill="#4d5575" d="M 116.5,39.5 C 115.833,39.5 115.167,39.5 114.5,39.5C 115.167,31.5 115.833,31.5 116.5,39.5 Z"/></g>
<g><path style="opacity:0.077" fill="#2c3345" d="M 126.5,34.5 C 125.549,35.9187 125.216,37.5853 125.5,39.5C 124.167,39.5 122.833,39.5 121.5,39.5C 121.5,38.8333 121.833,38.5 122.5,38.5C 123.451,37.0813 123.784,35.4147 123.5,33.5C 124.791,33.2627 125.791,33.596 126.5,34.5 Z"/></g>
<g><path style="opacity:0.8" fill="#6f7aa6" d="M 137.5,35.5 C 138.206,36.5573 138.539,36.2239 138.5,34.5C 138.833,34.5 139.167,34.5 139.5,34.5C 139.5,36.1667 139.5,37.8333 139.5,39.5C 138.833,39.5 138.167,39.5 137.5,39.5C 137.167,36.8333 136.833,36.8333 136.5,39.5C 136.167,39.5 135.833,39.5 135.5,39.5C 135.34,37.8008 135.506,36.1341 136,34.5C 136.383,35.056 136.883,35.3893 137.5,35.5 Z"/></g>
<g><path style="opacity:0.008" fill="#000000" d="M 147.5,35.5 C 148.833,36.1667 148.833,36.1667 147.5,35.5 Z"/></g>
<g><path style="opacity:0.035" fill="#343644" d="M 154.5,39.5 C 153.833,39.5 153.167,39.5 152.5,39.5C 152.5,37.5 152.5,35.5 152.5,33.5C 153.552,33.3505 154.552,33.5172 155.5,34C 154.594,35.6995 154.261,37.5328 154.5,39.5 Z"/></g>
<g><path style="opacity:0.008" fill="#000000" d="M 167.5,35.5 C 168.833,36.1667 168.833,36.1667 167.5,35.5 Z"/></g>
<g><path style="opacity:0.18" fill="#242c39" d="M 176.5,34.5 C 175.549,35.9187 175.216,37.5853 175.5,39.5C 175.167,39.5 174.833,39.5 174.5,39.5C 174.5,37.5 174.5,35.5 174.5,33.5C 176.401,33.2465 177.067,33.5798 176.5,34.5 Z"/></g>
<g><path style="opacity:0.733" fill="#6a759f" d="M 176.5,34.5 C 176.157,36.4832 176.824,37.8166 178.5,38.5C 178.5,38.8333 178.5,39.1667 178.5,39.5C 177.5,39.5 176.5,39.5 175.5,39.5C 175.216,37.5853 175.549,35.9187 176.5,34.5 Z"/></g>
<g><path style="opacity:1" fill="#5e668a" d="M 184.5,39.5 C 183.167,39.5 181.833,39.5 180.5,39.5C 180.739,37.5328 180.406,35.6995 179.5,34C 180.5,33.3333 181.5,33.3333 182.5,34C 181.253,35.4936 181.253,36.9936 182.5,38.5C 183.944,37.019 184.611,37.3523 184.5,39.5 Z"/></g>
<g><path style="opacity:0.2" fill="#343c53" d="M 187.5,39.5 C 186.833,39.5 186.167,39.5 185.5,39.5C 185.739,37.5328 185.406,35.6995 184.5,34C 185.448,33.5172 186.448,33.3505 187.5,33.5C 187.5,35.5 187.5,37.5 187.5,39.5 Z"/></g>
<g><path style="opacity:0.923" fill="#6b759e" d="M 198.5,35.5 C 197.167,35.8333 197.167,36.1667 198.5,36.5C 198.833,36.5 199.167,36.5 199.5,36.5C 200.11,37.391 200.443,38.391 200.5,39.5C 199.167,39.5 197.833,39.5 196.5,39.5C 196.5,37.8333 196.5,36.1667 196.5,34.5C 198.401,34.2465 199.067,34.5798 198.5,35.5 Z"/></g>
<g><path style="opacity:0.373" fill="#434861" d="M 218.5,37.5 C 215.833,37.8333 215.833,38.1667 218.5,38.5C 218.5,38.8333 218.5,39.1667 218.5,39.5C 217.167,39.5 215.833,39.5 214.5,39.5C 214.5,37.5 214.5,35.5 214.5,33.5C 216.199,33.3398 217.866,33.5065 219.5,34C 219.381,35.1448 219.048,36.3115 218.5,37.5 Z"/></g>
<g><path style="opacity:0.729" fill="#444b63" d="M 55.5,34.5 C 56.057,36.2352 56.3903,37.9018 56.5,39.5C 54.8333,39.5 53.1667,39.5 51.5,39.5C 50.438,37.9008 50.438,36.2341 51.5,34.5C 52.8333,33.1667 54.1667,33.1667 55.5,34.5 Z"/></g>
<g><path style="opacity:0.82" fill="#7e8bbd" d="M 57.5,34.5 C 58.1667,34.5 58.5,34.8333 58.5,35.5C 58.8417,36.3382 59.5084,36.6716 60.5,36.5C 59.8333,37.1667 59.1667,37.8333 58.5,38.5C 58.5,38.8333 58.5,39.1667 58.5,39.5C 58.1667,39.5 57.8333,39.5 57.5,39.5C 57.5,37.8333 57.5,36.1667 57.5,34.5 Z"/></g>
<g><path style="opacity:0.924" fill="#707ba8" d="M 63.5,34.5 C 65.4008,34.2465 66.0674,34.5798 65.5,35.5C 64.1667,35.8333 64.1667,36.1667 65.5,36.5C 65.8333,36.5 66.1667,36.5 66.5,36.5C 67.1098,37.391 67.4431,38.391 67.5,39.5C 66.1667,39.5 64.8333,39.5 63.5,39.5C 63.5,37.8333 63.5,36.1667 63.5,34.5 Z"/></g>
<g><path style="opacity:0.149" fill="#202430" d="M 76.5,38.5 C 75.2241,37.6136 75.2241,36.6136 76.5,35.5C 79.0452,36.5492 79.0452,37.5492 76.5,38.5 Z"/></g>
<g><path style="opacity:0.906" fill="#5e668b" d="M 106.5,34.5 C 106.5,35.1667 106.833,35.5 107.5,35.5C 107.5,35.8333 107.5,36.1667 107.5,36.5C 104.284,37.1687 103.951,38.1687 106.5,39.5C 105.5,39.5 104.5,39.5 103.5,39.5C 103.5,37.8333 103.5,36.1667 103.5,34.5C 104.5,34.5 105.5,34.5 106.5,34.5 Z"/></g>
<g><path style="opacity:0.973" fill="#68729b" d="M 108.5,35.5 C 108.833,35.5 109.167,35.5 109.5,35.5C 109.427,37.0269 110.094,38.0269 111.5,38.5C 112.167,38.5 112.5,38.8333 112.5,39.5C 111.5,39.5 110.5,39.5 109.5,39.5C 109.5,38.8333 109.167,38.5 108.5,38.5C 108.167,37.8333 107.833,37.1667 107.5,36.5C 108.167,36.5 108.5,36.1667 108.5,35.5 Z"/></g>
<g><path style="opacity:0.009" fill="#141418" d="M 118.5,35.5 C 118.833,36.1667 119.167,36.8333 119.5,37.5C 119.5,37.8333 119.5,38.1667 119.5,38.5C 118.833,38.5 118.5,38.8333 118.5,39.5C 118.167,39.5 117.833,39.5 117.5,39.5C 117.232,37.901 117.566,36.5676 118.5,35.5 Z"/></g>
<g><path style="opacity:0.973" fill="#7682b0" d="M 118.5,34.5 C 118.833,34.5 119.167,34.5 119.5,34.5C 120.492,34.3284 121.158,34.6618 121.5,35.5C 120.167,35.8333 120.167,36.1667 121.5,36.5C 121.5,37.1667 121.833,37.5 122.5,37.5C 122.5,37.8333 122.5,38.1667 122.5,38.5C 121.833,38.5 121.5,38.8333 121.5,39.5C 120.5,39.5 119.5,39.5 118.5,39.5C 118.5,38.8333 118.833,38.5 119.5,38.5C 120.833,38.1667 120.833,37.8333 119.5,37.5C 119.167,36.8333 118.833,36.1667 118.5,35.5C 118.5,35.1667 118.5,34.8333 118.5,34.5 Z"/></g>
<g><path style="opacity:0.631" fill="#4b526f" d="M 132.5,34.5 C 133.301,36.0418 133.634,37.7085 133.5,39.5C 131.833,39.5 130.167,39.5 128.5,39.5C 128.5,38.8333 128.167,38.5 127.5,38.5C 127.567,37.0413 127.234,35.7079 126.5,34.5C 128.359,34.1121 130.359,34.1121 132.5,34.5 Z M 130.5,36.5 C 131.368,38.8919 130.701,39.0586 128.5,37C 129.094,36.5357 129.761,36.369 130.5,36.5 Z"/></g>
<g><path style="opacity:0.578" fill="#596286" d="M 156.5,34.5 C 157.167,34.5 157.833,34.5 158.5,34.5C 159.167,34.5 159.5,34.8333 159.5,35.5C 159.369,36.2389 159.536,36.9056 160,37.5C 160.232,36.2625 160.732,35.2625 161.5,34.5C 161.5,36.1667 161.5,37.8333 161.5,39.5C 160.833,39.5 160.167,39.5 159.5,39.5C 159.167,38.1667 158.833,38.1667 158.5,39.5C 157.833,39.5 157.167,39.5 156.5,39.5C 156.5,37.8333 156.5,36.1667 156.5,34.5 Z"/></g>
<g><path style="opacity:0.745" fill="#596286" d="M 163.5,35.5 C 164.568,34.5655 165.901,34.2322 167.5,34.5C 167.5,34.8333 167.5,35.1667 167.5,35.5C 166.566,36.5676 166.232,37.901 166.5,39.5C 165.833,39.5 165.167,39.5 164.5,39.5C 164.768,37.901 164.434,36.5676 163.5,35.5 Z"/></g>
<g><path style="opacity:0.894" fill="#727eab" d="M 169.5,34.5 C 171.401,34.2465 172.067,34.5798 171.5,35.5C 170.167,35.8333 170.167,36.1667 171.5,36.5C 171.833,36.5 172.167,36.5 172.5,36.5C 173.11,37.391 173.443,38.391 173.5,39.5C 172.167,39.5 170.833,39.5 169.5,39.5C 169.5,37.8333 169.5,36.1667 169.5,34.5 Z"/></g>
<g><path style="opacity:0.941" fill="#545d7e" d="M 193.5,34.5 C 192.791,35.404 191.791,35.7373 190.5,35.5C 190.281,36.675 190.614,37.675 191.5,38.5C 192.696,38.1543 192.696,37.6543 191.5,37C 192.448,36.5172 193.448,36.3505 194.5,36.5C 194.443,37.609 194.11,38.609 193.5,39.5C 191.833,39.5 190.167,39.5 188.5,39.5C 188.854,37.4588 188.854,35.6255 188.5,34C 190.265,33.3603 191.932,33.5269 193.5,34.5 Z"/></g>
<g><path style="opacity:0.024" fill="#000000" d="M 72.5,37.5 C 73.8333,38.1667 73.8333,38.1667 72.5,37.5 Z"/></g>
<g><path style="opacity:0.875" fill="#2a3144" d="M 86.5,36.5 C 87.8333,37.5 87.8333,38.5 86.5,39.5C 86.1667,39.5 85.8333,39.5 85.5,39.5C 85.1667,38.1667 84.8333,38.1667 84.5,39.5C 84.1667,39.5 83.8333,39.5 83.5,39.5C 83.1205,36.4331 84.1205,35.4331 86.5,36.5 Z"/></g>
<g><path style="opacity:0.016" fill="#000000" d="M 94.5,37.5 C 95.8333,38.1667 95.8333,38.1667 94.5,37.5 Z"/></g>
<g><path style="opacity:0.169" fill="#242837" d="M 107.5,34.5 C 107.167,34.5 106.833,34.5 106.5,34.5C 105.5,34.5 104.5,34.5 103.5,34.5C 103.5,36.1667 103.5,37.8333 103.5,39.5C 103.167,39.5 102.833,39.5 102.5,39.5C 102.5,37.5 102.5,35.5 102.5,33.5C 104.415,33.2155 106.081,33.5489 107.5,34.5 Z"/></g>
<g><path style="opacity:0.004" fill="#111111" d="M 111.5,38.5 C 112.623,37.2426 113.289,37.5759 113.5,39.5C 113.167,39.5 112.833,39.5 112.5,39.5C 112.5,38.8333 112.167,38.5 111.5,38.5 Z"/></g>
<g><path style="opacity:0.867" fill="#2b3143" d="M 147.5,36.5 C 148.833,37.5 148.833,38.5 147.5,39.5C 147.167,39.5 146.833,39.5 146.5,39.5C 146.167,38.1667 145.833,38.1667 145.5,39.5C 145.167,39.5 144.833,39.5 144.5,39.5C 144.121,36.4331 145.121,35.4331 147.5,36.5 Z"/></g>
<g><path style="opacity:0.02" fill="#000000" d="M 178.5,37.5 C 179.833,38.1667 179.833,38.1667 178.5,37.5 Z"/></g>
<g><path style="opacity:0.027" fill="#000000" d="M 218.5,37.5 C 219.833,38.1667 219.833,38.1667 218.5,37.5 Z"/></g>
<g><path style="opacity:0.004" fill="#000000" d="M 7.5,38.5 C 8.16667,38.5 8.5,38.8333 8.5,39.5C 8.16667,39.1667 7.83333,38.8333 7.5,38.5 Z"/></g>
<g><path style="opacity:0.012" fill="#000000" d="M 36.5,38.5 C 36.5,38.8333 36.5,39.1667 36.5,39.5C 35.8299,39.0187 35.8299,38.6853 36.5,38.5 Z"/></g>
<g><path style="opacity:0.4" fill="#2e2f35" d="M 43.5,37.5 C 43.5,38.1667 43.5,38.8333 43.5,39.5C 41.5,39.5 39.5,39.5 37.5,39.5C 37.5,39.1667 37.5,38.8333 37.5,38.5C 39.6208,38.6747 41.6208,38.3414 43.5,37.5 Z"/></g>
<g><path style="opacity:0.973" fill="#677098" d="M 72.5,34.5 C 73.8333,35.5 73.8333,36.5 72.5,37.5C 69.8333,37.8333 69.8333,38.1667 72.5,38.5C 72.5,38.8333 72.5,39.1667 72.5,39.5C 71.5,39.5 70.5,39.5 69.5,39.5C 69.5,37.8333 69.5,36.1667 69.5,34.5C 70.5,34.5 71.5,34.5 72.5,34.5 Z"/></g>
<g><path style="opacity:0.553" fill="#535c7d" d="M 100.5,34.5 C 100.434,36.083 100.767,37.7497 101.5,39.5C 100.833,39.5 100.167,39.5 99.5,39.5C 99.1667,38.1667 98.8333,38.1667 98.5,39.5C 97.8333,39.5 97.1667,39.5 96.5,39.5C 96.5,37.5 96.5,35.5 96.5,33.5C 97.9587,33.4326 99.2921,33.7659 100.5,34.5 Z"/></g>
<g><path style="opacity:0.012" fill="#000000" d="M 108.5,38.5 C 108.5,38.8333 108.5,39.1667 108.5,39.5C 107.83,39.0187 107.83,38.6853 108.5,38.5 Z"/></g>
<g><path style="opacity:0.008" fill="#000000" d="M 127.5,38.5 C 127.5,38.8333 127.5,39.1667 127.5,39.5C 126.83,39.0187 126.83,38.6853 127.5,38.5 Z"/></g>
<g><path style="opacity:0.647" fill="#586183" d="M 201.5,34.5 C 202.167,34.5 202.833,34.5 203.5,34.5C 204.167,34.5 204.5,34.8333 204.5,35.5C 204.369,36.2389 204.536,36.9056 205,37.5C 205.232,36.2625 205.732,35.2625 206.5,34.5C 206.5,36.1667 206.5,37.8333 206.5,39.5C 205.833,39.5 205.167,39.5 204.5,39.5C 204.167,38.1667 203.833,38.1667 203.5,39.5C 202.833,39.5 202.167,39.5 201.5,39.5C 201.5,37.8333 201.5,36.1667 201.5,34.5 Z"/></g>
<g><path style="opacity:0.012" fill="#000000" d="M 208.5,38.5 C 208.5,38.8333 208.5,39.1667 208.5,39.5C 207.83,39.0187 207.83,38.6853 208.5,38.5 Z"/></g>
<g><path style="opacity:0.855" fill="#677097" d="M 208.5,35.5 C 209.167,35.5 209.5,35.8333 209.5,36.5C 210.833,37.5 212.167,38.5 213.5,39.5C 212.167,39.5 210.833,39.5 209.5,39.5C 209.5,38.8333 209.167,38.5 208.5,38.5C 208.5,37.5 208.5,36.5 208.5,35.5 Z"/></g>
</svg>
